<?xml version="1.0" encoding="UTF-8"?>
<svg xmlns="http://www.w3.org/2000/svg" viewBox="0 0 1200 675" role="img" aria-hidden="true">
<title>Product Requirements Document</title>
<!-- semantic content asset: gists/product-requirement-doc-guide -->
<rect x="0" y="0" width="1200" height="675" rx="0" fill="#0d0e0c" opacity="1"/>
<rect x="48" y="48" width="1104" height="579" rx="14" fill="#141512" stroke="#303129" stroke-width="2" opacity="1"/>
<rect x="48" y="48" width="1104" height="6" rx="3" fill="#6f8fa3" opacity="1"/>
<line x1="96" y1="76" x2="96" y2="603" stroke="#eee9dc" stroke-width="1" opacity="0.035" stroke-linecap="round"/>
<line x1="192" y1="76" x2="192" y2="603" stroke="#eee9dc" stroke-width="1" opacity="0.035" stroke-linecap="round"/>
<line x1="288" y1="76" x2="288" y2="603" stroke="#eee9dc" stroke-width="1" opacity="0.035" stroke-linecap="round"/>
<line x1="384" y1="76" x2="384" y2="603" stroke="#eee9dc" stroke-width="1" opacity="0.035" stroke-linecap="round"/>
<line x1="480" y1="76" x2="480" y2="603" stroke="#eee9dc" stroke-width="1" opacity="0.035" stroke-linecap="round"/>
<line x1="576" y1="76" x2="576" y2="603" stroke="#eee9dc" stroke-width="1" opacity="0.035" stroke-linecap="round"/>
<line x1="672" y1="76" x2="672" y2="603" stroke="#eee9dc" stroke-width="1" opacity="0.035" stroke-linecap="round"/>
<line x1="768" y1="76" x2="768" y2="603" stroke="#eee9dc" stroke-width="1" opacity="0.035" stroke-linecap="round"/>
<line x1="864" y1="76" x2="864" y2="603" stroke="#eee9dc" stroke-width="1" opacity="0.035" stroke-linecap="round"/>
<line x1="960" y1="76" x2="960" y2="603" stroke="#eee9dc" stroke-width="1" opacity="0.035" stroke-linecap="round"/>
<line x1="1056" y1="76" x2="1056" y2="603" stroke="#eee9dc" stroke-width="1" opacity="0.035" stroke-linecap="round"/>
<line x1="72" y1="120" x2="1128" y2="120" stroke="#eee9dc" stroke-width="1" opacity="0.035" stroke-linecap="round"/>
<line x1="72" y1="192" x2="1128" y2="192" stroke="#eee9dc" stroke-width="1" opacity="0.035" stroke-linecap="round"/>
<line x1="72" y1="264" x2="1128" y2="264" stroke="#eee9dc" stroke-width="1" opacity="0.035" stroke-linecap="round"/>
<line x1="72" y1="336" x2="1128" y2="336" stroke="#eee9dc" stroke-width="1" opacity="0.035" stroke-linecap="round"/>
<line x1="72" y1="408" x2="1128" y2="408" stroke="#eee9dc" stroke-width="1" opacity="0.035" stroke-linecap="round"/>
<line x1="72" y1="480" x2="1128" y2="480" stroke="#eee9dc" stroke-width="1" opacity="0.035" stroke-linecap="round"/>
<line x1="72" y1="552" x2="1128" y2="552" stroke="#eee9dc" stroke-width="1" opacity="0.035" stroke-linecap="round"/>
<line x1="72" y1="120" x2="1128" y2="120" stroke="#303129" stroke-width="2" opacity="0.75" stroke-linecap="round"/>
<g opacity="1"><rect x="170" y="152" width="500" height="370" rx="4" fill="#0d0e0c" stroke="#eee9dc" stroke-width="4" opacity="1"/><line x1="232" y1="236" x2="604" y2="236" stroke="#e0b661" stroke-width="8" opacity="0.8" stroke-linecap="round"/><line x1="232" y1="282" x2="548" y2="282" stroke="#aaa99e" stroke-width="5" opacity="0.8" stroke-linecap="round"/><line x1="232" y1="318" x2="584" y2="318" stroke="#aaa99e" stroke-width="5" opacity="0.6" stroke-linecap="round"/><path d="M760 220H980M760 220V492M760 492H980" fill="none" stroke="#c89a49" stroke-width="5" opacity="0.9" stroke-linecap="round" stroke-linejoin="round" /><circle cx="760" cy="220" r="14" fill="#7f9870" opacity="0.9"/><circle cx="760" cy="356" r="14" fill="#c89a49" opacity="0.9"/><circle cx="760" cy="492" r="14" fill="#6f8fa3" opacity="0.9"/><line x1="810" y1="220" x2="920" y2="220" stroke="#eee9dc" stroke-width="5" opacity="0.7" stroke-linecap="round"/><line x1="810" y1="356" x2="900" y2="356" stroke="#eee9dc" stroke-width="5" opacity="0.55" stroke-linecap="round"/><line x1="810" y1="492" x2="940" y2="492" stroke="#eee9dc" stroke-width="5" opacity="0.45" stroke-linecap="round"/></g>
</svg>
