<?xml version="1.0" encoding="UTF-8"?>
<svg xmlns="http://www.w3.org/2000/svg" viewBox="0 0 1200 675" role="img" aria-hidden="true">
<title>A Comprehensive Guide to Creating and Using Tasks in Visual Studio Code</title>
<!-- semantic content asset: gists/using-tasks-in-vscode -->
<rect x="0" y="0" width="1200" height="675" rx="0" fill="#0d0e0c" opacity="1"/>
<rect x="48" y="48" width="1104" height="579" rx="14" fill="#141512" stroke="#303129" stroke-width="2" opacity="1"/>
<rect x="48" y="48" width="1104" height="6" rx="3" fill="#6f8fa3" opacity="1"/>
<line x1="96" y1="76" x2="96" y2="603" stroke="#eee9dc" stroke-width="1" opacity="0.035" stroke-linecap="round"/>
<line x1="192" y1="76" x2="192" y2="603" stroke="#eee9dc" stroke-width="1" opacity="0.035" stroke-linecap="round"/>
<line x1="288" y1="76" x2="288" y2="603" stroke="#eee9dc" stroke-width="1" opacity="0.035" stroke-linecap="round"/>
<line x1="384" y1="76" x2="384" y2="603" stroke="#eee9dc" stroke-width="1" opacity="0.035" stroke-linecap="round"/>
<line x1="480" y1="76" x2="480" y2="603" stroke="#eee9dc" stroke-width="1" opacity="0.035" stroke-linecap="round"/>
<line x1="576" y1="76" x2="576" y2="603" stroke="#eee9dc" stroke-width="1" opacity="0.035" stroke-linecap="round"/>
<line x1="672" y1="76" x2="672" y2="603" stroke="#eee9dc" stroke-width="1" opacity="0.035" stroke-linecap="round"/>
<line x1="768" y1="76" x2="768" y2="603" stroke="#eee9dc" stroke-width="1" opacity="0.035" stroke-linecap="round"/>
<line x1="864" y1="76" x2="864" y2="603" stroke="#eee9dc" stroke-width="1" opacity="0.035" stroke-linecap="round"/>
<line x1="960" y1="76" x2="960" y2="603" stroke="#eee9dc" stroke-width="1" opacity="0.035" stroke-linecap="round"/>
<line x1="1056" y1="76" x2="1056" y2="603" stroke="#eee9dc" stroke-width="1" opacity="0.035" stroke-linecap="round"/>
<line x1="72" y1="120" x2="1128" y2="120" stroke="#eee9dc" stroke-width="1" opacity="0.035" stroke-linecap="round"/>
<line x1="72" y1="192" x2="1128" y2="192" stroke="#eee9dc" stroke-width="1" opacity="0.035" stroke-linecap="round"/>
<line x1="72" y1="264" x2="1128" y2="264" stroke="#eee9dc" stroke-width="1" opacity="0.035" stroke-linecap="round"/>
<line x1="72" y1="336" x2="1128" y2="336" stroke="#eee9dc" stroke-width="1" opacity="0.035" stroke-linecap="round"/>
<line x1="72" y1="408" x2="1128" y2="408" stroke="#eee9dc" stroke-width="1" opacity="0.035" stroke-linecap="round"/>
<line x1="72" y1="480" x2="1128" y2="480" stroke="#eee9dc" stroke-width="1" opacity="0.035" stroke-linecap="round"/>
<line x1="72" y1="552" x2="1128" y2="552" stroke="#eee9dc" stroke-width="1" opacity="0.035" stroke-linecap="round"/>
<line x1="72" y1="120" x2="1128" y2="120" stroke="#303129" stroke-width="2" opacity="0.75" stroke-linecap="round"/>
<g opacity="1"><rect x="150" y="170" width="580" height="350" rx="8" fill="#0d0e0c" stroke="#6f8fa3" stroke-width="4" opacity="1"/><rect x="150" y="170" width="580" height="52" rx="8" fill="#141512" stroke="#303129" stroke-width="3" opacity="1"/><line x1="196" y1="236" x2="646" y2="236" stroke="#aaa99e" stroke-width="5" opacity="0.8" stroke-linecap="round"/><line x1="196" y1="278" x2="580" y2="278" stroke="#aaa99e" stroke-width="5" opacity="0.6" stroke-linecap="round"/><path d="M220 360L250 390L220 420" fill="none" stroke="#e0b661" stroke-width="6" opacity="0.9" stroke-linecap="round" stroke-linejoin="round" /><line x1="284" y1="420" x2="530" y2="420" stroke="#7f9870" stroke-width="6" opacity="0.8" stroke-linecap="round"/><circle cx="880" cy="300" r="62" fill="#141512" stroke="#c89a49" stroke-width="5" opacity="0.9"/><path d="M850 300L874 324L914 274" fill="none" stroke="#7f9870" stroke-width="7" opacity="0.9" stroke-linecap="round" stroke-linejoin="round" /><path d="M820 450H940M880 386V514" fill="none" stroke="#303129" stroke-width="4" opacity="0.9" stroke-linecap="round" stroke-linejoin="round" /></g>
</svg>
